<svg width="616" height="180" viewBox="0 0 616 180" fill="none" xmlns="http://www.w3.org/2000/svg">
<path d="M354.939 139.29L235.37 243.059M354.939 139.29L440.47 280.795M354.939 139.29L437.66 135.338M354.939 139.29L260.655 90.8923M354.939 139.29L268.957 599.791M354.939 139.29L580.473 315.95M545.619 454.756L407.288 527.273M545.619 454.756L192.379 473.309M545.619 454.756L493.045 367.775M268.957 599.791L193.225 474.707M268.957 599.791L407.288 527.273M268.957 599.791L494.951 656.538M115.801 346.828L192.379 473.309M115.801 346.828L235.37 243.059M115.801 346.828L440.47 280.795M557.333 190.111L440.47 280.795M557.333 190.111L580.473 315.95M557.333 190.111L437.66 135.338M557.333 190.111L493.045 367.775M192.379 473.309L193.225 474.707M192.379 473.309L440.47 280.795M192.379 473.309L509.558 552.953M58.0553 74.1948L103.905 210.048M58.0553 74.1948L-44.1356 93.617M58.0553 74.1948L83.6495 46.4462M58.0553 74.1948C11.3992 51.0876 -84.2014 4.29863 -93.3556 2M193.225 474.707L103.905 210.048M170.075 130.681L235.37 243.059M170.075 130.681L103.905 210.048M170.075 130.681L159.1 65.3919L5.08445 185.234M170.075 130.681L260.655 90.8923M235.37 243.059L407.288 527.273M103.905 210.048L36.4173 234.546M5.08445 185.234L-44.1356 93.617M5.08445 185.234L36.4173 234.546M-93.3556 2L-44.1356 93.617M-93.3556 2L83.6495 46.4462M441.02 871.317L407.288 527.273M441.02 871.317L316.526 675.387M441.02 871.317L467.986 763.927M440.47 280.795L407.288 527.273M440.47 280.795L493.045 367.775M260.655 90.8923L192.033 479.456M260.655 90.8923L437.66 135.338M260.655 90.8923L83.6495 46.4462M192.033 479.456L36.4173 234.546M192.033 479.456L316.526 675.387M494.951 656.538L580.473 315.95M494.951 656.538L316.526 675.387M494.951 656.538L467.986 763.927M580.473 315.95L614.665 179.785L437.66 135.338M316.526 675.387L467.986 763.927" stroke="white" stroke-opacity="0.1" stroke-width="2"/>
</svg>
