<svg width="707" height="685" viewBox="0 0 707 685" fill="none" xmlns="http://www.w3.org/2000/svg">
<path d="M471.232 -7.02176L380.535 122.743M471.232 -7.02176L588.65 109.392M471.232 -7.02176L550.5 -31M471.232 -7.02176L368 -31M471.232 -7.02176L499.99 460.554M471.232 -7.02176L733 109.392M733 252.507L616.495 356.531M733 252.507L394.914 356.531M733 252.507L660.825 180.95M499.99 460.554L396.075 357.68M499.99 460.554L616.495 356.531M499.99 460.554H733M289.838 252.507L394.914 356.531M289.838 252.507L380.535 122.743M289.838 252.507L588.65 109.392M679.909 -7.02176L588.65 109.392M679.909 -7.02176L733 109.392M679.909 -7.02176L550.5 -31M679.909 -7.02176L660.825 180.95M394.914 356.531L396.075 357.68M394.914 356.531L588.65 109.392M394.914 356.531H721.939M167.434 2.14639L244.989 122.743M167.434 2.14639L73.0505 45.8714M167.434 2.14639L185.5 -31M167.434 2.14639C116.556 -8.90241 12.4384 -31 3 -31M396.075 357.68L244.989 122.743M289.838 29.6508L380.535 122.743M289.838 29.6508L244.989 122.743M289.838 29.6508L263.293 -31L143.101 122.743M289.838 29.6508L368 -31M380.535 122.743L616.495 356.531M244.989 122.743L185.5 162.939M143.101 122.743L73.0505 45.8714M143.101 122.743L185.5 162.939M3 -31L73.0505 45.8714M3 -31H185.5M733 682L616.495 356.531M733 682L564.538 522.288M733 682V571.277M588.65 109.392L616.495 356.531M588.65 109.392L660.825 180.95M368 -31L396.075 362.577M368 -31H550.5M368 -31H185.5M396.075 362.577L185.5 162.939M396.075 362.577L564.538 522.288M733 460.554V109.392M733 460.554L564.538 522.288M733 460.554V571.277M733 109.392V-31H550.5M564.538 522.288L733 571.277" stroke="white" stroke-opacity="0.1" stroke-width="2"/>
</svg>
